# xmcd
#
# Track frame offsets:
#	150
#	18081
#	33894
#	51603
#	71584
#	87990
#	108494
#	127878
#	144907
#	163863
#	182890
#	201581
#	217907
#	235248
#	258446
#	275611
#
# Disc length: 3938 seconds
#
# Revision: 1
# Processed by: cddbd v1.5.2PL0 Copyright (c) Steve Scherf et al.
# Submitted via: audiograbber 1.83.01
#
DISCID=ea0f6010
DTITLE=Best Country Hits - LKY - 8
DYEAR=2005
DGENRE=Karaoke
TTITLE0=Friends in low places - Garth Brooks
TTITLE1=Boot Scootin Boogie - Brooks and Dunn
TTITLE2=Wide open Spaces - Dixie Chicks
TTITLE3=Red Ragtop - Tim Mcgraw
TTITLE4=Should've been a cowboy - Toby Keith
TTITLE5=Good By Earl - Dixie Chicks
TTITLE6=Big Star - Kenny Chesney
TTITLE7=Redneck Woman - Gretchen Wilson
TTITLE8=What was I thinkin - Dierks Bentley
TTITLE9=It's five oclock somewhere - A jackson and J Buffet
TTITLE10=I hate every thing - George Strait
TTITLE11=Party for two - Shania and Billy
TTITLE12=no shoes no shirt no proble - Kenny Chesney
TTITLE13=Live like you were dying - Tim Mcgraw
TTITLE14=Stays in mexico - Toby Keith
TTITLE15=When I think about Cheatin - Gretchen Wilson
EXTD=
EXTT0=
EXTT1=
EXTT2=
EXTT3=
EXTT4=
EXTT5=
EXTT6=
EXTT7=
EXTT8=
EXTT9=
EXTT10=
EXTT11=
EXTT12=
EXTT13=
EXTT14=
EXTT15=
PLAYORDER=
